<?xml version="1.0" encoding="UTF-8"?>
<svg version="1.1" xmlns="http://www.w3.org/2000/svg" width="3137" height="1845">
<path d="M0 0 C0.69653687 -0.00100708 1.39307373 -0.00201416 2.11071777 -0.00305176 C15.5258897 0.00994374 28.62335377 1.08988623 41.875 3.25 C43.17171631 3.45882812 43.17171631 3.45882812 44.49462891 3.671875 C106.41055358 14.01713876 165.70349715 49.32312174 202.875 100.25 C203.55175781 101.13171875 204.22851562 102.0134375 204.92578125 102.921875 C232.1856632 138.97702948 247.72906181 182.59095134 252.875 227.25 C253.00777344 228.39855469 253.14054687 229.54710937 253.27734375 230.73046875 C253.59537273 234.23750071 253.77427039 237.73149112 253.875 241.25 C253.90223145 242.17458008 253.92946289 243.09916016 253.95751953 244.05175781 C255.2997752 298.4004496 255.2997752 298.4004496 244.875 319.25 C252.90736291 319.23513624 260.93895397 319.19359514 268.97095203 319.11790943 C272.70052457 319.08360569 276.42968605 319.05852437 280.15942383 319.05444336 C283.75838287 319.05016737 287.35641417 319.02176563 290.95508385 318.97656822 C292.32855515 318.96357033 293.70213736 318.95929372 295.07566261 318.96384621 C296.99819364 318.96873468 298.9207211 318.93984932 300.84301758 318.90942383 C301.93777908 318.90276199 303.03254059 318.89610016 304.16047668 318.88923645 C307.08905417 318.51590048 307.08905417 318.51590048 308.59184265 315.82206726 C309.01528458 314.97328506 309.4387265 314.12450287 309.875 313.25 C314.89831513 309.69692345 319.93790085 309.54527116 325.875 310.25 C329.3125 311.4375 329.3125 311.4375 331.875 313.25 C332.39900391 314.53197266 332.39900391 314.53197266 332.93359375 315.83984375 C334.58102532 318.40309362 334.58102532 318.40309362 336.8425293 318.67163086 C339.41095108 318.78131154 341.93156115 318.73310555 344.5 318.625 C345.36496094 318.61082031 346.22992187 318.59664062 347.12109375 318.58203125 C350.96286467 318.4956346 354.67703723 318.27766395 358.48847961 317.74504089 C365.91785808 316.91770008 373.40470205 317.1192263 380.86938477 317.13647461 C382.58497618 317.13675703 384.30056771 317.13659768 386.01615906 317.1360321 C390.65185259 317.13574626 395.28752003 317.14160848 399.92320752 317.14860606 C404.77586562 317.15487515 409.62852439 317.15544621 414.48118591 317.15663147 C423.66071065 317.15973432 432.84022343 317.16793358 442.01974291 317.17798096 C452.47440645 317.18917462 462.92907058 317.19466074 473.38373864 317.19967639 C494.88083243 317.21011709 516.37791546 317.22769623 537.875 317.25 C536.54891724 316.03437378 536.54891724 316.03437378 535.19604492 314.79418945 C534.01995417 313.71312449 532.84393244 312.63198443 531.66796875 311.55078125 C531.08720581 311.01876099 530.50644287 310.48674072 529.90808105 309.93859863 C510.58853075 292.1580749 496.00837685 269.36611574 494.83056641 242.56689453 C494.29078237 215.79681276 506.00098306 191.5978864 523.875 172.25 C524.51824219 171.52554688 525.16148438 170.80109375 525.82421875 170.0546875 C546.54969104 147.84561307 579.28788622 135.08897543 609.328125 134.046875 C625.90563216 133.77768679 642.25070546 135.40336105 657.875 141.25 C658.97714844 141.65863281 660.07929688 142.06726563 661.21484375 142.48828125 C677.60556304 149.03350661 690.55130061 158.74214042 702.875 171.25 C703.73996094 172.11625 704.60492187 172.9825 705.49609375 173.875 C721.06251966 190.27775036 731.50993317 212.62298315 732.875 235.25 C732.92785156 235.94480469 732.98070313 236.63960937 733.03515625 237.35546875 C733.61111937 251.90479808 729.80208115 266.67964936 724.875 280.25 C724.64941406 280.87326172 724.42382812 281.49652344 724.19140625 282.13867188 C720.73030356 291.5344902 716.44151049 300.44200829 711.85839844 309.33154297 C710.17051886 312.62433287 708.52536012 315.93827735 706.875 319.25 C708.76798828 319.01023437 708.76798828 319.01023437 710.69921875 318.765625 C718.17338234 318.02281826 725.65859017 318.02734856 733.1628418 318.00976562 C735.69937674 317.99995406 738.23513501 317.96879786 740.77148438 317.9375 C742.39582859 317.93097777 744.0201785 317.92572425 745.64453125 317.921875 C746.39668411 317.9095282 747.14883698 317.8971814 747.92378235 317.88446045 C752.42772364 317.90354888 755.28994874 318.47607506 758.875 321.25 C761.60304915 325.28025992 761.42016113 329.55322717 760.875 334.25 C759.63304538 337.16859335 758.78396076 338.67607416 756.10955811 340.36471558 C753.390985 341.44175645 751.29516931 341.49045949 748.37207031 341.47705078 C747.27123108 341.47689972 746.17039185 341.47674866 745.03619385 341.47659302 C743.85378113 341.46627045 742.67136841 341.45594788 741.453125 341.4453125 C740.23800232 341.4424826 739.02287964 341.43965271 737.77093506 341.43673706 C733.88885665 341.42553954 730.00700871 341.40043534 726.125 341.375 C723.49349291 341.36496966 720.86198221 341.35584391 718.23046875 341.34765625 C711.77856716 341.32560157 705.32680005 341.29212804 698.875 341.25 C698.443644 397.35194612 698.443644 397.35194612 700.09326172 453.41748047 C700.18627839 455.2574665 700.27888979 457.09747306 700.37109375 458.9375 C700.41637207 459.83969269 700.46165039 460.74188538 700.50830078 461.67141724 C701.08230354 473.7317201 701.20117995 485.8036657 701.375 497.875 C701.62728879 515.20603144 702.10845432 532.49938084 702.9375 549.8125 C703.54952649 562.79155369 704.09673045 575.7554954 704.1875 588.75 C704.20498291 589.95470947 704.22246582 591.15941895 704.24047852 592.40063477 C704.23581565 599.44208057 703.61916202 604.07706266 698.875 609.5625 C694.35312517 613.37783189 688.47542522 612.68327072 682.875 612.25 C677.63391251 610.534735 675.51292993 608.03735431 672.875 603.25 C671.96824964 600.35458197 671.75048326 597.75448383 671.75195217 594.72852707 C671.74996112 593.82184682 671.74797007 592.91516656 671.74591869 591.98101115 C671.74883153 590.98879786 671.75174437 589.99658456 671.75474548 588.9743042 C671.75389106 587.91732999 671.75303663 586.86035578 671.75215632 585.77135205 C671.75050502 582.2183192 671.75601722 578.66533322 671.76147461 575.11230469 C671.76175658 572.56987509 671.76159855 570.02744542 671.7610321 567.48501587 C671.76080415 562.00551504 671.76364645 556.52602939 671.76926994 551.04653168 C671.77739528 543.1240898 671.78000123 535.20165368 671.78125793 527.27920809 C671.78344682 514.4257188 671.7901025 501.57223585 671.79956055 488.71875 C671.80873887 476.2324222 671.81581765 463.74609612 671.82006836 451.25976562 C671.82033108 450.49017166 671.82059381 449.72057769 671.82086449 448.9276627 C671.82216952 445.06685487 671.82343323 441.20604702 671.82467639 437.34523916 C671.83504393 405.31348816 671.85265783 373.28174496 671.875 341.25 C671.1144698 341.27959745 670.35393961 341.30919491 669.57036304 341.33968925 C666.06690267 341.47518242 662.56336099 341.60845343 659.05981445 341.74169922 C657.86384895 341.78828171 656.66788345 341.8348642 655.43567657 341.88285828 C645.78968754 342.24729174 636.15742068 342.40562108 626.50512695 342.38037109 C623.98578314 342.37483131 621.46660537 342.38047146 618.94726562 342.38671875 C617.31249961 342.38606045 615.6777337 342.38478448 614.04296875 342.3828125 C613.30555954 342.38483673 612.56815033 342.38686096 611.80839539 342.38894653 C607.71755027 342.37034462 603.89575768 341.96649938 599.875 341.25 C599.80456803 366.58239277 599.75184577 391.91477062 599.71956348 417.24724197 C599.70416837 429.01251775 599.68322157 440.7777323 599.64868164 452.54296875 C599.61855187 462.81097864 599.59937174 473.07894414 599.59273452 483.34699702 C599.58886171 488.77164258 599.57991841 494.19616126 599.55780983 499.62076569 C599.4458103 528.24339825 600.31697365 555.70893125 606.015625 583.86328125 C607.62256094 591.89967045 609.33011214 600.4642722 605.875 608.25 C603.67178843 610.95071096 601.17588747 612.70446655 597.9375 614.0625 C591.62839042 614.63605542 586.45912199 614.36535227 580.875 611.25 C567.92862502 598.87901947 570.27312592 575.67629749 569.875 559.25 C569.7312392 549.45341003 569.75353978 539.65593671 569.77360606 529.85858226 C569.7799887 526.1978429 569.78045488 522.5371021 569.78163147 518.87635803 C569.7847019 511.9887771 569.7928555 505.10121263 569.80298096 498.21363884 C569.8142778 490.35347697 569.81968623 482.49331418 569.82467639 474.63314617 C569.83504332 458.50542125 569.8525568 442.37771274 569.875 426.25 C565.91741726 427.66528441 561.96105411 429.08394927 558.00488281 430.50317383 C556.89694366 430.89934151 555.78900452 431.29550919 554.64749146 431.70368195 C545.64438109 434.93629725 536.74613264 438.38194316 527.89501953 442.00805664 C525.58225471 442.95500176 523.26598952 443.89298179 520.94921875 444.83007812 C512.95401013 448.07885621 505.07319674 451.46050293 497.29003906 455.19458008 C494.875 456.25 494.875 456.25 492.875 456.25 C493.02122803 457.1064209 493.16745605 457.9628418 493.31811523 458.84521484 C493.86688559 462.06905022 494.41257929 465.29337684 494.95629883 468.51806641 C495.19077391 469.9049889 495.4264201 471.291714 495.66333008 472.67822266 C502.66827337 513.70082924 502.66827337 513.70082924 493.40234375 529.1171875 C487.51628053 537.33660059 478.78214069 541.7631768 469.0078125 543.8671875 C445.2570507 546.76940029 425.00353212 539.35228542 406.19921875 525.2421875 C399.82863247 519.95299486 394.71366111 514.2135045 393.30078125 505.8515625 C392.79777959 495.54561729 395.77518466 489.91661009 402.41796875 482.35546875 C412.22545574 471.83094096 424.10372704 464.00377853 436.078125 456.171875 C439.83305641 453.59167073 443.32802648 450.74343755 446.81640625 447.81640625 C448.875 446.25 448.875 446.25 451.875 445.25 C452.96949389 443.41607337 452.96949389 443.41607337 453.875 441.25 C454.66767342 439.86347553 455.48052243 438.48830282 456.3125 437.125 C456.72371094 436.44179687 457.13492187 435.75859375 457.55859375 435.0546875 C458.875 433.25 458.875 433.25 461.875 431.25 C463.86108398 430.97875977 463.86108398 430.97875977 466.12109375 430.94140625 C467.37889648 430.90370117 467.37889648 430.90370117 468.66210938 430.86523438 C470.3938194 430.83077883 472.12559401 430.79939565 473.85742188 430.77148438 C486.99721412 430.36304504 498.38241249 425.66498526 510.3125 420.625 C511.82991288 419.990702 513.34757497 419.35699987 514.86547852 418.72387695 C518.55273137 417.18319522 522.23548752 415.63211364 525.91650391 414.07659912 C528.6399742 412.92713645 531.36715835 411.78656636 534.09375 410.64453125 C543.485173 406.68657755 552.74803208 402.50748669 561.92749023 398.07885742 C562.66555908 397.72283447 563.40362793 397.36681152 564.1640625 397 C564.81068848 396.68546875 565.45731445 396.3709375 566.12353516 396.046875 C567.875 395.25 567.875 395.25 570.875 394.25 C570.875 377.09 570.875 359.93 570.875 342.25 C492.995 342.25 415.115 342.25 334.875 342.25 C334.57455436 408.97036478 334.57455436 408.97036478 337.34814453 475.37939453 C337.99338693 484.89474465 338.57130966 494.41414215 339.15234375 503.93359375 C339.37659918 507.60449891 339.60096716 511.27539716 339.82543945 514.94628906 C339.909133 516.31576533 339.909133 516.31576533 339.99451733 517.71290779 C340.37704075 523.96102433 340.76687641 530.2086529 341.16088867 536.45605469 C343.75739709 577.67870406 343.75739709 577.67870406 344.125 595.6875 C344.14162689 596.49909073 344.15825378 597.31068146 344.17538452 598.14686584 C344.23843119 602.91784767 343.47426875 606.10973621 340.875 610.25 C337.22568571 613.71684857 334.33434019 614.53300436 329.4375 614.6875 C322.33594417 614.40806293 317.05602702 612.28710961 311.875 607.25 C306.62688709 600.19219298 308.55062285 590.42104583 309.58609009 582.19184875 C310.51723219 574.72476183 311.0361673 567.41550006 310.99609375 559.88671875 C310.99322861 558.90181961 310.99036346 557.91692047 310.9874115 556.9021759 C310.91821166 545.59613576 310.5126514 534.30196933 310.07543945 523.00512695 C309.93695859 519.42349723 309.80488248 515.84167407 309.67382812 512.25976562 C309.20251477 499.58146907 308.64542439 486.91378617 307.875 474.25 C307.19937012 475.22243652 306.52374023 476.19487305 305.82763672 477.19677734 C301.10124847 483.98394492 296.26931497 490.33055142 290.58984375 496.359375 C288.81487267 498.1455419 288.81487267 498.1455419 287.875 500.25 C287.215 500.25 286.555 500.25 285.875 500.25 C285.545 501.24 285.215 502.23 284.875 503.25 C283.37890625 504.7578125 283.37890625 504.7578125 281.4375 506.375 C278.27082137 509.04758693 275.21473826 511.79562045 272.1875 514.625 C252.57786434 532.17830608 228.56984236 542.34761636 202.03320312 541.38623047 C184.81798614 540.29956858 168.44141194 534.49299607 156.4375 521.8125 C150.00808401 514.09979332 148.73181158 506.20710221 148.875 496.25 C152.04272995 463.15653883 175.38762283 430.18753681 198.5859375 407.6171875 C201.14450916 405.07939433 203.05862226 402.74685997 204.6875 399.5 C205.1721875 398.55125 205.656875 397.6025 206.15625 396.625 C206.7234375 395.51125 207.290625 394.3975 207.875 393.25 C208.63138702 391.87277918 209.39211524 390.49793721 210.15625 389.125 C217.65806443 375.50537216 223.53443682 361.32481092 228.43800354 346.57302856 C228.7073449 345.76326632 228.97668627 344.95350407 229.25418949 344.11920357 C229.56149069 343.1939478 229.56149069 343.1939478 229.875 342.25 C228.59905975 342.25222061 227.32311951 342.25444122 226.0085144 342.25672913 C213.74958053 342.27735134 201.49065034 342.29215459 189.2317028 342.30181217 C182.93522268 342.30694468 176.63875698 342.31385738 170.34228516 342.32543945 C138.17157282 342.38308047 106.03441317 342.13378759 73.875 341.25 C73.50327505 402.86566719 73.50327505 402.86566719 75.23291016 464.44725037 C75.27851074 465.42758743 75.32411133 466.4079245 75.37109375 467.41796875 C75.43901123 468.8652108 75.43901123 468.8652108 75.50830078 470.34169006 C76.03901812 482.11814805 76.19377187 493.90148587 76.375 505.6875 C76.6340265 522.28861692 77.13953701 538.85356416 77.9375 555.4375 C79.1425843 581.1280957 79.1425843 581.1280957 79.3125 591.0625 C79.34674072 592.01600342 79.38098145 592.96950684 79.41625977 593.9519043 C79.45793593 600.27552925 77.86150046 604.32950646 73.875 609.25 C70.62243618 612.31123654 67.75429671 612.47312353 63.4375 612.625 C57.43636628 612.43948108 53.76419388 611.24131247 49.5625 606.8125 C47.13063728 603.11967143 46.74984125 600.07828543 46.75195217 595.7129097 C46.74996112 594.80274605 46.74797007 593.8925824 46.74591869 592.95483804 C46.74883153 591.95873379 46.75174437 590.96262955 46.75474548 589.93634033 C46.75389106 588.87528257 46.75303663 587.81422481 46.75215632 586.72101378 C46.75050498 583.15416146 46.75601728 579.58735583 46.76147461 576.02050781 C46.76175658 573.46822613 46.76159855 570.91594436 46.7610321 568.36366272 C46.76080415 562.86288099 46.7636465 557.36211438 46.76926994 551.86133575 C46.77739522 543.90812479 46.78000122 535.95491957 46.78125793 528.0017049 C46.78344683 515.09830132 46.79010254 502.19490406 46.79956055 489.29150391 C46.80873884 476.7566735 46.81581764 464.22184481 46.82006836 451.68701172 C46.82033108 450.91443076 46.82059381 450.1418498 46.82086449 449.34585729 C46.82216952 445.47006539 46.82343323 441.59427347 46.82467639 437.71848154 C46.83504397 405.56231643 46.85265789 373.40615909 46.875 341.25 C46.17715393 341.32105453 45.47930786 341.39210907 44.76031494 341.46531677 C36.60906721 342.22781001 28.5423088 342.38084991 20.359375 342.34765625 C19.00889133 342.34578536 17.65840696 342.34436464 16.30792236 342.34336853 C12.79650922 342.33959606 9.28513911 342.32981248 5.77374268 342.31866455 C2.17338645 342.30833545 -1.4269769 342.30384657 -5.02734375 342.29882812 C-12.05991317 342.28818407 -19.09245374 342.27117311 -26.125 342.25 C-26.19603277 363.49987406 -26.24843808 384.74972776 -26.28043652 405.99969769 C-26.29570873 415.87313076 -26.31649702 425.74648804 -26.35131836 435.61987305 C-26.67440551 489.34216257 -26.67440551 489.34216257 -24.80078125 543.01953125 C-24.74218618 544.05266638 -24.68359112 545.08580151 -24.62322044 546.15024376 C-23.98168748 557.00795005 -22.95114004 567.71303393 -21.13967609 578.4426775 C-20.23842551 583.86892105 -19.83861948 589.18838851 -19.75 594.6875 C-19.73584643 595.37559596 -19.72169287 596.06369192 -19.7071104 596.77263927 C-19.74961942 601.08526498 -20.44459365 603.85151712 -23.125 607.25 C-29.72417252 610.84954865 -35.8342533 610.84515666 -43.125 609.25 C-49.04023462 606.87444178 -51.60444318 604.13212233 -54.125 598.25 C-54.46848965 595.0977602 -54.46848965 595.0977602 -54.42442322 591.68196106 C-54.41572236 590.39437991 -54.4070215 589.10679876 -54.39805698 587.7802 C-54.37355324 586.37795877 -54.34885325 584.97572096 -54.32397461 583.57348633 C-54.30910886 582.09737705 -54.29576002 580.62125182 -54.28383541 579.14511585 C-54.25695096 576.05719272 -54.22204138 572.96951387 -54.18091965 569.8817482 C-54.12423674 565.47483025 -54.09706941 561.06821522 -54.08132935 556.66098022 C-54.07874298 555.95905751 -54.07615661 555.25713479 -54.07349187 554.53394169 C-54.06825826 553.11017595 -54.06305328 551.68641011 -54.05787671 550.26264417 C-54.04288088 546.59309191 -54.02065662 542.92358708 -53.9981842 539.2540741 C-53.99136148 538.13708219 -53.99136148 538.13708219 -53.98440093 536.9975248 C-53.97019115 534.68975534 -53.95580478 532.38198703 -53.94140625 530.07421875 C-53.93151409 528.47060463 -53.92163097 526.86699046 -53.91175652 525.26337624 C-53.87058342 518.59924492 -53.82890356 511.93511719 -53.78566074 505.27099895 C-53.72449277 495.84443131 -53.66655854 486.41785622 -53.61300808 476.99124211 C-53.57462316 470.27874548 -53.53268484 463.56627667 -53.48812145 456.85381824 C-53.46179655 452.87558909 -53.43694497 448.89736464 -53.41592598 444.91910362 C-53.39617673 441.19637604 -53.37198237 437.47370259 -53.34450912 433.75102425 C-53.33088515 431.75694743 -53.3217858 429.76284127 -53.31288147 427.76873779 C-53.25199902 420.21752951 -52.87555087 412.76462801 -52.125 405.25 C-90.77212586 411.41482248 -129.0196119 418.29890928 -167.125 427.25 C-165.55129639 428.03141357 -165.55129639 428.03141357 -163.94580078 428.82861328 C-145.18705648 438.16169345 -127.67803705 447.86693526 -111.625 461.4375 C-111.06135742 461.9123584 -110.49771484 462.3872168 -109.91699219 462.87646484 C-99.91452947 471.53829898 -92.10239986 482.68857701 -91.125 496.25 C-90.71383113 515.42074861 -98.36820682 532.81770044 -111.37597656 546.59326172 C-127.39724024 562.90573136 -147.55878127 571.51922743 -170.375 571.75 C-203.40810961 571.47176902 -229.45537224 557.23477063 -252.35351562 534.15136719 C-272.96759723 512.0258893 -285.50677583 481.85467607 -295.875 453.9375 C-296.21047852 453.04297119 -296.54595703 452.14844238 -296.89160156 451.22680664 C-298.74660426 446.04750703 -300.15076303 441.51379144 -298.4375 436.0625 C-296.64862521 433.5921491 -294.84703926 432.62427017 -292.125 431.25 C-284.90999497 430.12849663 -278.57095663 430.74018785 -272.22265625 434.375 C-265.33743789 440.52938513 -262.69341968 447.46753645 -260.1875 456.1875 C-259.50503428 458.42602018 -258.81751146 460.66300467 -258.125 462.8984375 C-257.78855469 463.98479492 -257.45210937 465.07115234 -257.10546875 466.19042969 C-248.52754829 492.95798428 -232.47328379 520.30085457 -207.02734375 533.90625 C-189.93431647 542.21847304 -171.89383035 544.37564065 -153.53125 539.24609375 C-142.21585951 535.24076277 -133.20827458 528.69138496 -127.90625 517.73046875 C-123.80854205 507.96914302 -122.81924017 498.85933511 -126.05859375 488.71875 C-127.52353757 485.32737823 -129.54824278 482.65743924 -131.91796875 479.84375 C-133.125 478.25 -133.125 478.25 -133.125 476.25 C-133.68703125 475.99347656 -134.2490625 475.73695313 -134.828125 475.47265625 C-137.40545778 474.1007087 -139.5598252 472.46702101 -141.875 470.6875 C-158.35896441 458.63238579 -177.68898319 449.98586364 -196.1484375 441.44140625 C-197.08598877 441.00562256 -198.02354004 440.56983887 -198.98950195 440.12084961 C-200.71740123 439.32296073 -202.44996208 438.53504449 -204.18823242 437.76000977 C-210.50257158 434.85013722 -218.17870023 431.22484302 -221.34985352 424.74853516 C-222.40681704 421.34161715 -222.56851506 418.79812045 -222.125 415.25 C-218.78376718 409.99949129 -214.44970497 409.39854536 -208.76754761 408.04907227 C-201.70756274 406.5003106 -194.60837898 405.17045819 -187.50390625 403.84375 C-185.78014268 403.51922375 -184.05642972 403.19442857 -182.33276367 402.86938477 C-177.73471827 402.00345002 -173.13577802 401.14236691 -168.53654861 400.28274536 C-165.68141715 399.74886256 -162.82650172 399.21383891 -159.97164917 398.6784668 C-136.19623785 394.22067334 -112.4159148 389.78773976 -88.61569214 385.46411133 C-86.00922186 384.99027759 -83.4030373 384.51486934 -80.79714966 384.0378418 C-77.22120944 383.38428281 -73.64407022 382.73779671 -70.06640625 382.09375 C-69.03290039 381.90393555 -67.99939453 381.71412109 -66.93457031 381.51855469 C-65.98493408 381.34936523 -65.03529785 381.18017578 -64.05688477 381.00585938 C-63.2429274 380.85870483 -62.42897003 380.71155029 -61.59034729 380.55993652 C-58.78872699 380.2077247 -55.94867305 380.25 -53.125 380.25 C-53.125 367.71 -53.125 355.17 -53.125 342.25 C-110.875 342.25 -168.625 342.25 -228.125 342.25 C-221.58233586 361.36784088 -221.58233586 361.36784088 -213.5 379.625 C-212.96632813 380.73359375 -212.43265625 381.8421875 -211.8828125 382.984375 C-208.73556106 389.41637915 -205.28592874 395.42021962 -201.125 401.25 C-201.455 401.91 -201.785 402.57 -202.125 403.25 C-235.125 361.35638298 -235.125 361.35638298 -235.125 342.25 C-272.745 342.25 -310.365 342.25 -349.125 342.25 C-349.125 346.54 -349.125 350.83 -349.125 355.25 C-349.22848771 357.74364704 -349.35727392 360.23657023 -349.52734375 362.7265625 C-349.65544434 364.69085205 -349.65544434 364.69085205 -349.78613281 366.69482422 C-349.83145142 367.37317322 -349.87677002 368.05152222 -349.92346191 368.75042725 C-350.37045264 375.5806731 -350.74442369 382.41578912 -351.125 389.25 C-351.16320862 389.92699951 -351.20141724 390.60399902 -351.24078369 391.30151367 C-353.32405913 428.84467281 -350.86242285 466.47333858 -349.31665039 503.99731445 C-348.60769517 521.23908501 -347.91338123 538.48091855 -347.45413208 555.73147583 C-347.40267597 557.61300732 -347.347133 559.49443302 -347.28683472 561.3757019 C-346.98416601 570.97671425 -347.02082593 580.46331213 -347.859375 590.0390625 C-347.92199524 590.84652924 -347.98461548 591.65399597 -348.0491333 592.4859314 C-348.74554709 599.28508238 -350.83060683 605.4348147 -355.9375 610.1875 C-360.21455416 612.95500563 -363.33550602 613.75412542 -368.39453125 612.83984375 C-374.097109 611.26052288 -376.81282347 609.11475928 -380.125 604.25 C-381.44374199 601.61251602 -381.25456499 599.62753412 -381.2578125 596.67578125 C-381.25910156 595.53173828 -381.26039063 594.38769531 -381.26171875 593.20898438 C-381.25785156 592.00564453 -381.25398438 590.80230469 -381.25 589.5625 C-381.25386719 588.40943359 -381.25773437 587.25636719 -381.26171875 586.06835938 C-381.25507375 580.08453706 -381.08256779 574.15919809 -380.62953186 568.19187927 C-380.11718873 560.74714682 -379.95440421 553.33960008 -379.91967773 545.87915039 C-379.91006194 544.51734648 -379.90004994 543.15554532 -379.88967896 541.79374695 C-379.86302368 538.15014121 -379.8418052 534.50652303 -379.82167697 530.86287618 C-379.79956963 527.03522526 -379.77230391 523.20761088 -379.74562073 519.37998962 C-379.696024 512.15565199 -379.65096497 504.9312937 -379.60759836 497.70691627 C-379.55794079 489.4721181 -379.50312993 481.23735663 -379.44791877 473.00259411 C-379.33460672 456.08509681 -379.22766035 439.16756523 -379.125 422.25 C-383.40629856 422.86367867 -387.68638048 423.48548375 -391.96630859 424.10864258 C-393.76551003 424.36638836 -393.76551003 424.36638836 -395.60105896 424.62934113 C-405.25980035 426.04185633 -414.68824418 428.00586066 -424.16714478 430.3119812 C-441.32555677 434.46742482 -458.57437297 438.00422084 -475.9375 441.1875 C-476.93573792 441.37259125 -477.93397583 441.5576825 -478.96246338 441.74838257 C-497.86826812 445.24072058 -516.90215784 448.28386062 -536.125 449.25 C-534.83642987 450.56554021 -533.54404109 451.87734097 -532.25 453.1875 C-531.17105469 454.28384766 -531.17105469 454.28384766 -530.0703125 455.40234375 C-528.25472808 457.30667999 -528.25472808 457.30667999 -526.125 458.25 C-526.125 458.91 -526.125 459.57 -526.125 460.25 C-525.59390625 460.46269531 -525.0628125 460.67539063 -524.515625 460.89453125 C-521.20346266 462.77250565 -518.61585718 465.3305661 -515.875 467.9375 C-514.70247848 469.03585649 -513.52930481 470.13351724 -512.35546875 471.23046875 C-511.51314697 472.0201001 -511.51314697 472.0201001 -510.65380859 472.82568359 C-507.54963545 475.71769032 -504.3445417 478.48794202 -501.125 481.25 C-500.6398291 481.66685059 -500.1546582 482.08370117 -499.65478516 482.51318359 C-496.72179316 485.03280676 -493.78593619 487.54904572 -490.84765625 490.0625 C-488.39336295 492.16232 -485.9429562 494.26652637 -483.49609375 496.375 C-476.45472199 502.43821644 -469.34541273 508.39988458 -462.125 514.25 C-460.12365437 515.87334244 -458.12363719 517.49832413 -456.125 519.125 C-455.238125 519.84429688 -454.35125 520.56359375 -453.4375 521.3046875 C-449.66112385 524.48143635 -449.66112385 524.48143635 -448.125 526.25 C-448.125 526.91 -448.125 527.57 -448.125 528.25 C-447.28775391 528.57484375 -447.28775391 528.57484375 -446.43359375 528.90625 C-438.81275209 533.34206985 -431.91774493 544.01140244 -429.125 552.25 C-428.11396153 556.81652375 -428.91334847 560.39540343 -431.1875 564.4375 C-434.48528553 569.21036339 -438.57327067 572.39942356 -444.125 574.25 C-448.44552046 574.73911552 -450.44253651 574.72681449 -454.0546875 572.203125 C-457.51266249 569.15466834 -459.64962123 565.58435617 -461.9375 561.625 C-466.14478443 554.64743175 -470.70713842 548.35837335 -476.125 542.25 C-476.56005859 541.75467773 -476.99511719 541.25935547 -477.44335938 540.74902344 C-488.24258506 528.51040872 -500.20456277 517.0240878 -512.93359375 506.796875 C-514.36020079 505.65031784 -515.7475994 504.45522552 -517.125 503.25 C-517.125 502.59 -517.125 501.93 -517.125 501.25 C-518.00333496 500.85494263 -518.00333496 500.85494263 -518.89941406 500.4519043 C-521.22356286 499.19677217 -522.83107738 497.84314046 -524.734375 496.01953125 C-525.40726563 495.38080078 -526.08015625 494.74207031 -526.7734375 494.08398438 C-527.46695313 493.41689453 -528.16046875 492.74980469 -528.875 492.0625 C-533.58818432 487.5598857 -538.34141438 483.14267314 -543.26757812 478.87329102 C-545.89804613 476.57439751 -548.44452687 474.19454074 -551 471.8125 C-556.1797156 467.02656395 -561.57525489 462.60239853 -567.125 458.25 C-570.81725046 455.28051177 -574.47763329 452.27441359 -578.125 449.25 C-578.97747314 448.54520508 -578.97747314 448.54520508 -579.84716797 447.82617188 C-598.94444587 431.97806568 -598.94444587 431.97806568 -601.3125 424.5 C-601.00722851 419.20862748 -599.0574535 417.12164131 -595.25 413.5625 C-591.00196485 410.41895399 -588.76087287 409.25 -583.4375 409.25 C-575.5086531 410.51682704 -568.66573052 416.46172279 -562.23046875 420.953125 C-557.4314436 423.9091108 -552.74096186 425.3085059 -547.125 424.25 C-536.97502365 420.44174178 -532.05207513 412.36433472 -527.54296875 402.9453125 C-520.97679434 387.3874639 -516.61599183 370.92436921 -512.90625 354.48828125 C-512.63586914 353.3031897 -512.36548828 352.11809814 -512.08691406 350.89709473 C-511.42990358 348.01540607 -510.77597962 345.13305587 -510.125 342.25 C-510.67330695 342.25276538 -511.2216139 342.25553076 -511.78653622 342.25837994 C-525.15867213 342.32477639 -538.53077897 342.37415499 -551.9030447 342.40543652 C-558.36991468 342.42107405 -564.83666543 342.44227772 -571.3034668 342.47631836 C-577.54747244 342.50897951 -583.79136358 342.5268674 -590.03544807 342.53463173 C-592.41440698 342.54016307 -594.79335982 342.5509644 -597.17226982 342.56719017 C-600.51138594 342.58905379 -603.85003248 342.59196313 -607.18920898 342.59057617 C-608.6554924 342.60675491 -608.6554924 342.60675491 -610.15139771 342.6232605 C-617.23817461 342.59153126 -623.94836844 341.79130525 -629.625 337.25 C-632.74377383 333.09163489 -632.80305735 328.24954287 -632.125 323.25 C-630.24879387 320.74839182 -628.88608697 319.63054348 -626.125 318.25 C-624.03610662 318.09662253 -621.94247571 318.00658375 -619.84887695 317.94458008 C-619.19765303 317.92463926 -618.5464291 317.90469845 -617.87547112 317.88415337 C-615.68402813 317.81945364 -613.49246884 317.76279586 -611.30078125 317.70703125 C-610.15303946 317.6756755 -610.15303946 317.6756755 -608.98211098 317.64368629 C-595.69068632 317.28351854 -582.40115646 317.14916947 -569.10546875 317.07421875 C-567.22242127 317.06226083 -565.3393748 317.05014488 -563.45632935 317.03787231 C-547.88132892 316.93886016 -547.88132892 316.93886016 -540.39819336 316.92407227 C-535.6049421 316.9140026 -530.81214098 316.88478666 -526.01906776 316.84275246 C-524.21822818 316.83050924 -522.41732535 316.82530888 -520.61644554 316.82755089 C-518.12555119 316.82990137 -515.63597891 316.80778733 -513.14526367 316.7800293 C-512.41765839 316.78663071 -511.6900531 316.79323212 -510.94039917 316.80003357 C-505.84670729 316.70681794 -503.14633748 315.26463922 -499.125 312.25 C-493.09232681 310.13856438 -487.37120383 309.50327397 -481.125 311.25 C-478.72852202 313.52957661 -477.57939733 315.34120535 -476.125 318.25 C-450.99804757 318.35965102 -425.87529953 318.3365276 -400.75 318.02734375 C-399.86424664 318.01645218 -398.97849327 318.00556061 -398.0658989 317.99433899 C-392.54452527 317.92600945 -387.02317321 317.85601489 -381.50182343 317.78578949 C-348.52082898 317.36637325 -315.54628129 317.15860395 -282.5625 317.1875 C-281.58272816 317.18835602 -280.60295631 317.18921204 -279.59349442 317.19009399 C-267.77064272 317.20123808 -255.94782127 317.22098492 -244.125 317.25 C-244.26697311 316.62101303 -244.40894623 315.99202606 -244.55522156 315.34397888 C-249.85545231 291.74690232 -249.85545231 291.74690232 -250.9375 281.3125 C-251.05367676 280.21244629 -251.16985352 279.11239258 -251.28955078 277.97900391 C-254.69521283 242.04149493 -251.23459608 205.36706148 -239.125 171.25 C-238.69380859 170.03231934 -238.69380859 170.03231934 -238.25390625 168.79003906 C-233.97228574 156.84680509 -229.12491549 145.42631317 -223.125 134.25 C-222.7945166 133.61852051 -222.4640332 132.98704102 -222.12353516 132.33642578 C-211.79618122 112.64507185 -198.55172462 94.06068123 -182.49609375 78.62109375 C-180.95021394 77.13268757 -180.95021394 77.13268757 -179.1875 74.75 C-176.81339989 71.8723029 -174.19201852 69.58865692 -171.35546875 67.17578125 C-169.89283209 65.91294435 -168.45630187 64.61908143 -167.05078125 63.29296875 C-129.29949731 27.78172609 -77.25457666 6.65205185 -26.125 1.25 C-24.8879834 1.11078125 -24.8879834 1.11078125 -23.62597656 0.96875 C-15.75811255 0.15553408 -7.90519496 0.00800932 0 0 Z M-160.39453125 99.63671875 C-162.7046871 101.84772628 -165.05748845 103.93898549 -167.5 106 C-170.7411529 108.80809698 -173.53268955 111.84249933 -176.296875 115.1171875 C-177.54247848 116.57039156 -178.82599058 117.99174585 -180.140625 119.3828125 C-220.56016715 162.27405328 -239.37569555 223.71538399 -238.42578125 281.66015625 C-239.02879252 300.48477757 -239.02879252 300.48477757 -234.125 317.25 C-231.16654876 317.37556767 -228.23036759 317.43615629 -225.27050781 317.45532227 C-224.33802719 317.46522186 -223.40554657 317.47512146 -222.44480896 317.48532104 C-219.3226074 317.51718464 -216.20039207 317.54186248 -213.078125 317.56640625 C-210.8780686 317.58702634 -208.6780157 317.60802394 -206.47796631 317.62937927 C-201.82371144 317.67352365 -197.16944309 317.71435973 -192.51513672 317.75268555 C-186.69438545 317.80068029 -180.87370968 317.854513 -175.05303192 317.91065407 C-145.40978461 318.19508749 -115.76953011 318.31294102 -86.125 318.25 C-88.7961318 315.5766585 -91.46691039 312.90464688 -94.17578125 310.26953125 C-113.89102627 290.95627083 -128.56103104 268.87495378 -129.5625 240.5 C-128.78855457 212.15424859 -116.1181445 187.41180512 -96.0078125 167.82421875 C-69.40975292 144.07337693 -35.51594404 133.43990405 -0.125 135.25 C30.54119802 137.90706348 55.98354146 150.98311945 77.875 172.25 C78.93654297 173.27287109 78.93654297 173.27287109 80.01953125 174.31640625 C96.45341212 191.41969164 106.8490528 216.6121016 106.875 240.25 C105.75264825 268.03996702 94.47308956 292.93789734 81.875 317.25 C81.545 317.91 81.215 318.57 80.875 319.25 C132.025 319.25 183.175 319.25 235.875 319.25 C244.54382579 270.12665388 239.33936108 218.28436901 216.875 173.25 C216.44783691 172.39003418 216.02067383 171.53006836 215.58056641 170.64404297 C210.28754723 160.07870253 204.84122701 149.81745932 197.875 140.25 C197.44106934 139.64381836 197.00713867 139.03763672 196.56005859 138.41308594 C189.60787501 128.72534333 182.18575397 119.79254723 173.875 111.25 C173.26108398 110.61030273 172.64716797 109.97060547 172.01464844 109.31152344 C163.19344074 100.1386981 154.18730219 91.71645721 143.875 84.25 C143.27284668 83.80881836 142.67069336 83.36763672 142.05029297 82.91308594 C110.62333574 60.04366532 74.35815959 44.99352158 35.875 39.25 C35.13926758 39.13430664 34.40353516 39.01861328 33.64550781 38.89941406 C-34.99444673 28.48443672 -110.31731427 51.48272768 -160.39453125 99.63671875 Z M-75.125 184.25 C-76.34123047 185.27673828 -76.34123047 185.27673828 -77.58203125 186.32421875 C-92.0042493 199.58457685 -100.0750099 218.6771747 -101.08642578 238.0546875 C-101.45806049 259.20493647 -92.92427542 278.55298533 -79.125 294.25 C-78.49980469 295.00667969 -77.87460938 295.76335937 -77.23046875 296.54296875 C-72.16194416 302.5405508 -66.49279437 307.6546018 -60.125 312.25 C-59.57050674 312.74143494 -59.01601349 313.23286987 -58.44471741 313.73919678 C-49.41402491 320.60454613 -37.88084673 319.32520979 -27.08203125 319.44140625 C-24.82621085 319.48063875 -22.5704073 319.52085128 -20.31462097 319.56199646 C-15.60177737 319.64011547 -10.88934168 319.69443817 -6.17602539 319.73413086 C-0.14168621 319.78856683 5.88819917 319.92084852 11.92075634 320.07316685 C16.57287055 320.17890392 21.2245856 320.23411777 25.87767982 320.2750988 C28.10226654 320.30250643 30.3267093 320.34771431 32.55055809 320.41122627 C44.37088636 321.26001517 44.37088636 321.26001517 54.7427063 316.87301636 C56.58161821 314.03121756 57.76025155 311.43472757 58.875 308.25 C59.64814944 306.85852502 60.44422565 305.47901363 61.28125 304.125 C69.21501503 289.67040771 75.21406254 274.57751224 77.875 258.25 C78.07029297 257.06083984 78.07029297 257.06083984 78.26953125 255.84765625 C81.23315368 233.99588022 76.64710358 211.33938233 63.875 193.25 C49.53964597 174.45525854 29.06218385 163.77174258 5.9375 160 C-24.48949813 156.19237565 -51.98562564 164.63250639 -75.125 184.25 Z M544.5546875 189.21875 C529.52406173 207.39532069 522.81819252 226.67935358 524.875 250.25 C526.97275012 266.96644627 535.38599237 281.39185358 545.875 294.25 C546.56722656 295.15298828 546.56722656 295.15298828 547.2734375 296.07421875 C552.59435521 302.87713704 559.80427816 308.36432761 566.875 313.25 C567.35841858 313.65578278 567.84183716 314.06156555 568.33990479 314.47964478 C574.82664905 319.36479663 581.4231486 318.87631595 589.234375 318.703125 C590.62907124 318.69122629 592.02378981 318.68172911 593.41851807 318.67449951 C597.07711376 318.64986979 600.73467575 318.59611678 604.39282227 318.53503418 C609.5244617 318.45449275 614.65658263 318.41314606 619.78863525 318.36834717 C622.51378941 318.34452207 625.23781274 318.30822245 627.96282959 318.26495361 C634.79672523 318.17663487 641.480929 318.36828282 648.28460693 319.01797485 C651.51371846 319.30721091 654.71204936 319.36354388 657.953125 319.34765625 C659.72236328 319.34282227 659.72236328 319.34282227 661.52734375 319.33789062 C662.71457031 319.32951172 663.90179687 319.32113281 665.125 319.3125 C666.35863281 319.30798828 667.59226562 319.30347656 668.86328125 319.29882812 C671.86724069 319.28718487 674.87109266 319.27083376 677.875 319.25 C695.66653994 287.52419767 710.88255167 255.26068679 700.875 218.25 C696.56533201 203.36568368 688.80575362 191.95187864 677.875 181.25 C677.22273438 180.610625 676.57046875 179.97125 675.8984375 179.3125 C658.80603599 163.7592247 633.5807701 158.3068762 611.10302734 159.11376953 C586.08692168 160.6433539 561.92111274 170.90192338 544.5546875 189.21875 Z M-479.125 341.25 C-480.70625995 348.26912265 -480.70625995 348.26912265 -482.01953125 355.30859375 C-485.91535557 378.2424229 -491.92656359 398.33277897 -504.125 418.25 C-504.62 419.24 -504.62 419.24 -505.125 420.25 C-494.64291684 418.95127975 -484.46496319 416.88211497 -474.1875 414.5 C-470.68945475 413.6976571 -467.1904542 412.89951981 -463.69140625 412.1015625 C-462.7393631 411.88394257 -461.78731995 411.66632263 -460.806427 411.44210815 C-452.8526077 409.62936831 -444.88784941 407.86803409 -436.91985893 406.118927 C-434.77854665 405.64870165 -432.63741854 405.17764701 -430.49635315 404.70629883 C-429.78795131 404.55036003 -429.07954947 404.39442123 -428.3496809 404.23375702 C-426.91679602 403.91832954 -425.48391498 403.60288458 -424.05103779 403.28742218 C-420.49242334 402.50436415 -416.9333611 401.72345448 -413.37332153 400.94689941 C-410.63472534 400.34945393 -407.89683041 399.74897743 -405.15968323 399.14492798 C-402.64575183 398.59017121 -400.13085861 398.03974823 -397.61485291 397.49447632 C-391.55809246 396.15094629 -385.86367673 394.61583738 -380.125 392.25 C-379.06700362 385.07518419 -378.79967093 377.93093355 -378.5625 370.6875 C-378.49772461 368.92696289 -378.49772461 368.92696289 -378.43164062 367.13085938 C-378.13397225 358.4890267 -378.125 349.90816918 -378.125 341.25 C-411.455 341.25 -444.785 341.25 -479.125 341.25 Z M236.875 342.25 C233.245 350.5 229.615 358.75 225.875 367.25 C215.2967033 386.53983516 215.2967033 386.53983516 208.875 395.25 C209.205 395.91 209.535 396.57 209.875 397.25 C210.67421875 396.60933594 211.4734375 395.96867187 212.296875 395.30859375 C227.79370504 383.03580865 243.52094771 373.95386931 263.875 375.25 C279.44315882 377.45798406 291.87317623 384.48399461 301.859375 396.671875 C302.88275633 398.04612993 303.88440982 399.43717159 304.8515625 400.8515625 C305.35816406 401.54378906 305.35816406 401.54378906 305.875 402.25 C306.205 402.25 306.535 402.25 306.875 402.25 C306.875 382.45 306.875 362.65 306.875 342.25 C283.775 342.25 260.675 342.25 236.875 342.25 Z M210.68383789 438.47119141 C195.58018866 457.95287479 177.61964709 485.89098771 180.09375 511.515625 C180.74580709 514.50004015 181.58573654 516.02695986 184.0078125 517.89453125 C192.33363362 521.8305802 203.04172738 519.7432724 211.4375 516.8125 C234.73153079 508.04843543 258.87598448 489.19734359 274.875 470.25 C274.875 469.59 274.875 468.93 274.875 468.25 C275.535 468.25 276.195 468.25 276.875 468.25 C278.34598687 466.87375656 278.34598687 466.87375656 279.875 465 C280.49375 464.26910156 281.1125 463.53820313 281.75 462.78515625 C282.801875 461.53025391 282.801875 461.53025391 283.875 460.25 C284.679375 459.32058594 285.48375 458.39117188 286.3125 457.43359375 C296.2473854 447.21235697 296.2473854 447.21235697 300.7421875 434.79296875 C296.15784108 421.34968264 286.32119528 410.72417363 273.875 404.25 C248.14791144 394.21508849 225.20759465 420.38612699 210.68383789 438.47119141 Z M457.6796875 473.59375 C456.8858667 474.09430908 456.0920459 474.59486816 455.27416992 475.1105957 C454.44119385 475.65159912 453.60821777 476.19260254 452.75 476.75 C451.89704346 477.29809326 451.04408691 477.84618652 450.1652832 478.41088867 C436.03227234 487.32423725 436.03227234 487.32423725 425.875 500.25 C425.31472057 504.31202583 425.05271876 506.82196299 427.12109375 510.4140625 C432.0555366 516.49949549 438.22603034 519.75616867 445.875 521.25 C452.00082591 521.7002113 457.78608598 522.06432241 463.5625 519.8125 C469.23652834 513.52506319 469.1638757 506.32263139 468.875 498.25 C468.63922992 494.65778081 468.30286855 491.08113001 467.9375 487.5 C467.80698242 486.14068359 467.80698242 486.14068359 467.67382812 484.75390625 C467.22687925 480.21820283 466.69943684 475.73612481 465.875 471.25 C461.77443797 471.25 460.95155785 471.51576031 457.6796875 473.59375 Z " fill="#E1BA66" transform="translate(1503.125,607.75)"/>
<path d="M0 0 C4.42420011 0.00478132 8.84835882 -0.00782164 13.2725451 -0.01801741 C21.91465998 -0.03511591 30.55670186 -0.03606396 39.19882925 -0.03080451 C46.23284241 -0.02674398 53.26683418 -0.02822858 60.30084634 -0.03355277 C61.80919477 -0.0346754 61.80919477 -0.0346754 63.34801488 -0.03582071 C65.39161719 -0.03735238 67.4352195 -0.03889073 69.4788218 -0.04043568 C88.59644494 -0.05412892 107.71402704 -0.04874594 126.83164923 -0.03725047 C144.26600882 -0.02732637 161.70026215 -0.04025021 179.13460536 -0.06418466 C197.09579218 -0.0886539 215.05692968 -0.09816408 233.01813281 -0.09153193 C243.07802149 -0.0880564 253.1378286 -0.09016045 263.19770455 -0.10778296 C271.76333694 -0.12260347 280.32883033 -0.12301347 288.89446028 -0.10571205 C293.25223067 -0.09727894 297.60975385 -0.09486023 301.96751046 -0.1103636 C325.81786399 -0.18917858 349.22203342 0.78430569 372.24208856 7.78183305 C373.2701159 8.08290971 374.29814324 8.38398637 375.35732293 8.69418657 C383.7719043 11.20258225 392.03735289 13.964924 400.11708856 17.40683305 C400.78578973 17.69107133 401.4544909 17.97530962 402.14345574 18.26816118 C453.15825621 40.33247936 492.60322064 82.04768478 516.19741082 131.84994829 C522.24303232 144.51073903 530.40668539 153.85028791 543.60536981 159.4654268 C551.38028945 162.196449 558.85520941 162.55206369 567.02779412 162.53813493 C568.68018157 162.5413085 568.68018157 162.5413085 570.36595058 162.54454619 C574.05937375 162.55054001 577.75276268 162.54954643 581.44619012 162.54867876 C584.09451253 162.55171093 586.74283096 162.55515853 589.39115167 162.55920732 C595.09918737 162.56731341 600.80721863 162.57226218 606.51525903 162.57549798 C615.56262853 162.58101242 624.60996067 162.59793174 633.65731072 162.61683977 C636.75881594 162.62319676 639.86032125 162.62950531 642.96182656 162.63581693 C643.73703071 162.63740069 644.51223485 162.63898446 645.31093003 162.64061621 C654.13384606 162.65854948 662.95676475 162.6747732 671.77968621 162.68979204 C672.58591096 162.69116791 673.39213572 162.69254378 674.22279152 162.69396134 C687.23812766 162.71581118 700.25345408 162.7266279 713.2688053 162.73416279 C726.66885092 162.74227699 740.06881433 162.76571059 753.46881294 162.80211645 C761.71006835 162.82397157 769.95115387 162.83385882 778.19243672 162.82761612 C783.86418202 162.8244042 789.53578402 162.83601298 795.20748493 162.85851053 C798.46344511 162.87098906 801.7190282 162.8753315 804.97500825 162.86609399 C851.15678165 162.74845843 890.74280649 174.77443555 924.11708856 207.40683305 C924.68935174 207.95935747 925.26161492 208.51188188 925.85121942 209.08114946 C951.34481048 234.03558012 965.86600135 270.98521559 966.305794 306.45228899 C966.33394427 309.79746397 966.34138962 313.14235777 966.34145379 316.4876436 C966.34201677 317.40556039 966.34257975 318.32347718 966.34315979 319.26920962 C966.32023339 345.70413544 965.02639532 372.10394159 963.82633105 398.50572886 C963.48663191 405.98585723 963.15749665 413.46644149 962.82856088 420.94704958 C962.24174576 434.2848221 961.64609935 447.62218449 961.04506707 460.95932329 C960.46347501 473.86529465 959.88808079 486.77152287 959.31948113 499.67807329 C959.28420259 500.47883355 959.24892405 501.27959381 959.21257646 502.10461954 C959.17735595 502.90409499 959.14213545 503.70357043 959.10584766 504.5272724 C959.03491318 506.13739112 958.96397633 507.74750972 958.89303708 509.35762823 C958.8580426 510.15192164 958.82304813 510.94621506 958.78699321 511.76457797 C958.2412003 524.14719452 957.68992721 536.5295678 957.13806318 548.91191504 C956.93902709 553.3792497 956.74079138 557.84661905 956.54314143 562.31401525 C956.20165572 570.03192469 955.8564249 577.74965345 955.50701356 585.46720827 C955.39167442 588.02702123 955.27757578 590.58689043 955.16479897 593.14681756 C955.0109046 596.63488265 954.85250229 600.1227143 954.69290948 603.61052263 C954.64913094 604.62594332 954.6053524 605.641364 954.56024724 606.68755502 C954.34289214 611.33523576 954.03019547 615.83111556 953.11708856 620.40683305 C952.78708856 620.40683305 952.45708856 620.40683305 952.11708856 620.40683305 C949.17681768 579.53616023 946.37894776 538.65662967 943.66146731 497.77055824 C943.41745476 494.09980816 943.17324635 490.42907116 942.92897439 486.75833833 C941.41643907 464.02836771 939.90592719 441.29826369 938.40200067 418.56772172 C937.65009526 407.2036881 936.89532368 395.83984853 936.1374082 384.47621411 C935.66396329 377.37543605 935.19392586 370.27444402 934.72657573 363.17326236 C934.43622991 358.77462428 934.14250644 354.37621642 933.84785867 349.97786462 C933.71345216 347.9616986 933.58038172 345.94544292 933.44883943 343.929088 C932.28456866 320.72593306 932.28456866 320.72593306 928.05458856 297.96933305 C927.84471307 297.19694292 927.63483758 296.42455278 927.41860223 295.62875688 C923.12188225 280.79031095 915.81718696 267.37547227 906.11708856 255.40683305 C905.33720574 254.44390337 904.55732293 253.48097368 903.75380731 252.4888643 C884.69822624 230.37690525 857.02923136 217.11248066 828.10030437 214.60795414 C823.24281223 214.28047394 818.39800244 214.26370468 813.53109002 214.26880205 C812.41746504 214.26598077 811.30384006 214.26315949 810.15646887 214.26025271 C806.45290519 214.25196982 802.74937165 214.25057392 799.04579949 214.24911821 C796.37889174 214.24444539 793.71198789 214.23936681 791.04508233 214.23372209 C785.31473984 214.22224172 779.58440023 214.21397383 773.85404992 214.20760286 C764.78409692 214.19722844 755.71417994 214.17665294 746.6442492 214.1544832 C743.53432119 214.14700503 740.42439302 214.13959107 737.31446481 214.13219583 C736.53741991 214.13034526 735.76037501 214.1284947 734.9597833 214.12658805 C726.13087422 214.10569577 717.30196119 214.0868507 708.47304559 214.06894243 C707.66676293 214.06730425 706.86048027 214.06566606 706.0297648 214.06397824 C692.96852039 214.03770182 679.90727317 214.01905012 666.84601352 214.00235052 C653.40632238 213.98489078 639.96668622 213.95600707 626.52703905 213.91746116 C618.25397111 213.8941538 609.98099282 213.88007498 601.70789179 213.87813352 C596.03208853 213.87601374 590.35637427 213.86299823 584.68061104 213.8416542 C581.4138846 213.82970629 578.14736817 213.82407141 574.88061738 213.82836664 C549.78709414 213.85607742 529.72007099 210.7562132 509.11708856 195.40683305 C508.12128778 194.67013383 508.12128778 194.67013383 507.10536981 193.9185518 C496.27683789 185.28006005 489.69268127 172.69469615 483.57680535 160.55160844 C470.45464383 134.51146632 453.60338522 110.15731449 430.11708856 92.40683305 C429.16318231 91.66046587 428.20927606 90.91409868 427.22646356 90.1451143 C394.02642721 64.54979832 353.52163766 51.2361223 311.73726678 51.26639116 C310.29650974 51.26380276 308.85575341 51.26078829 307.41499805 51.25738776 C303.478109 51.24936988 299.54123823 51.24753111 295.60434198 51.24679029 C291.34911023 51.24493053 287.09388776 51.23737849 282.83866143 51.23065507 C273.54261965 51.21710705 264.24658221 51.21105219 254.9505322 51.20664442 C249.13671362 51.20387529 243.32289668 51.19963667 237.50907922 51.19514024 C221.38655094 51.18295084 205.26402396 51.17265175 189.14149117 51.16926515 C188.1107452 51.16904558 187.07999923 51.16882602 186.01801853 51.1685998 C184.98491289 51.16838152 183.95180725 51.16816324 182.88739538 51.16793835 C180.79420066 51.1674949 178.70100594 51.16704833 176.60781121 51.16659868 C175.56953127 51.16637725 174.53125133 51.16615582 173.46150836 51.16592768 C156.6607844 51.16198484 139.86010395 51.14454503 123.05939677 51.12123916 C105.77656258 51.09745971 88.49375015 51.08506026 71.21089935 51.08389723 C61.52099748 51.08298403 51.83115227 51.07732181 42.14126611 51.05907762 C33.88528667 51.04358718 25.6293814 51.03860832 17.37339017 51.04681572 C13.17013621 51.05069121 8.96703119 51.04994694 4.76379609 51.03575838 C-16.40902378 50.96838548 -37.55837028 51.12123001 -58.07041144 57.09433305 C-58.96711555 57.34852006 -59.86381965 57.60270708 -60.7876966 57.86459672 C-87.0987095 65.60953894 -110.22158094 79.41607998 -129.88291144 98.40683305 C-131.25382941 99.68300493 -131.25382941 99.68300493 -132.65244269 100.98495805 C-145.03580957 112.81913412 -153.77371773 126.52303425 -162.07041144 141.40683305 C-179.67200692 172.93706235 -205.01497982 197.3042494 -239.94541144 208.28183305 C-256.53940912 212.90845343 -272.4555539 213.84608136 -289.61191535 213.80746782 C-291.94326351 213.81322342 -294.27460869 213.8203115 -296.60594916 213.8286165 C-301.59027215 213.84362763 -306.57448872 213.84951272 -311.55883384 213.84808862 C-318.78239798 213.84621397 -326.00583033 213.86182101 -333.22936146 213.88254117 C-344.97747556 213.91593076 -356.72557815 213.9376805 -368.47373176 213.95053422 C-369.17411269 213.95130371 -369.87449363 213.9520732 -370.59609823 213.95286601 C-373.43358332 213.95596804 -376.27106843 213.95905085 -379.10855357 213.96210605 C-386.92331634 213.97064148 -394.73807509 213.9815445 -402.55283332 213.99350297 C-403.60300802 213.995105 -403.60300802 213.995105 -404.67439838 213.99673939 C-416.38651192 214.01488947 -428.09859828 214.04090905 -439.81068528 214.07163411 C-447.64563603 214.09145564 -455.48051206 214.10112899 -463.31548691 214.10258627 C-468.20118542 214.10535184 -473.08684312 214.11621469 -477.9725244 214.12909639 C-480.22339536 214.13334694 -482.47427573 214.13425597 -484.72514892 214.13142145 C-522.53154441 214.08930128 -553.73412552 222.97431002 -581.35166144 249.80527055 C-606.03822001 275.96954565 -611.46842017 307.96534012 -613.1256218 342.60707653 C-613.43037925 348.96559269 -613.75683014 355.32301549 -614.07962775 361.68063676 C-614.14560082 362.99103811 -614.21157389 364.30143946 -614.27954614 365.65154994 C-614.95404378 378.98679011 -615.71382964 392.3166 -616.49277472 405.64609087 C-616.56108992 406.8187593 -616.62940512 407.99142773 -616.69979048 409.19963157 C-617.12481239 416.49346301 -617.55240707 423.78714123 -617.98116899 431.08075368 C-618.20755289 434.93363337 -618.43343199 438.78654233 -618.65915275 442.63946092 C-619.40952806 455.44779192 -620.16126914 468.25604139 -620.91495861 481.06417778 C-620.95481762 481.74154113 -620.99467662 482.41890448 -621.03574347 483.11679399 C-621.07565327 483.79501517 -621.11556306 484.47323634 -621.15668224 485.17200968 C-621.81180731 496.30666599 -622.46336584 507.441528 -623.11344089 518.57648018 C-623.78776389 530.12606216 -624.46476281 541.67548418 -625.14437258 553.22475636 C-625.52326104 559.66433435 -625.90106854 566.10397118 -626.27613425 572.54377306 C-626.62601072 578.54952534 -626.97922693 584.5550718 -627.3350637 590.5604738 C-627.46488242 592.76110288 -627.5934957 594.96180346 -627.72082496 597.16257799 C-627.89442176 600.15982744 -628.07233156 603.15679048 -628.25135016 606.15372026 C-628.30086424 607.02632092 -628.35037832 607.89892159 -628.40139282 608.79796469 C-628.641929 612.75137615 -628.95638851 616.54065499 -629.88291144 620.40683305 C-630.21291144 620.40683305 -630.54291144 620.40683305 -630.88291144 620.40683305 C-633.90460057 567.83871153 -636.75490602 515.26164357 -639.51370215 462.67909563 C-640.20019841 449.59763472 -640.89352085 436.51657283 -641.59555483 423.43593633 C-642.09965319 414.03222426 -642.59573598 404.62810836 -643.08623028 395.22367704 C-643.37508393 389.68940064 -643.66705931 384.15533979 -643.96801734 378.62170732 C-645.10768907 357.6220888 -646.09103452 336.66039503 -646.09482551 315.62558305 C-646.09641331 314.41715777 -646.09641331 314.41715777 -646.09803319 313.18431985 C-646.09331276 289.25515778 -641.93661543 266.84674682 -630.88291144 245.40683305 C-630.28086881 244.18441315 -629.67932828 242.96174587 -629.07822394 241.7388643 C-612.33649243 208.35792783 -580.78963292 182.80716187 -545.82041144 170.53183305 C-525.73923676 164.1223285 -505.04649116 162.80995444 -484.10971808 162.92441118 C-481.76235454 162.92221702 -479.41499211 162.91820776 -477.06763434 162.9125551 C-472.07249784 162.90408725 -467.07757785 162.90763371 -462.08245254 162.92097795 C-454.84026359 162.93981051 -447.59823664 162.93377728 -440.35605042 162.92040414 C-428.57031671 162.89896417 -416.78462902 162.89207651 -404.99887824 162.89755571 C-404.29782702 162.89787634 -403.5967758 162.89819697 -402.8744806 162.89852732 C-397.89812397 162.90090068 -392.92176771 162.90380649 -387.94541144 162.90683305 C-382.24839011 162.91029566 -376.55136879 162.91351267 -370.85434699 162.9161104 C-369.8009083 162.91659866 -369.8009083 162.91659866 -368.72618801 162.91709679 C-356.96746633 162.92205868 -345.20880815 162.91128911 -333.45010632 162.88953865 C-325.59750577 162.87582729 -317.74518298 162.88199532 -309.89259803 162.90290391 C-304.99471333 162.91195006 -300.09695173 162.90436295 -295.19907737 162.8924917 C-292.94783897 162.89037882 -290.69658142 162.89497572 -288.4453752 162.90719736 C-257.2910567 163.06666133 -232.44640063 155.59839659 -209.88291144 133.40683305 C-209.08884894 132.6488643 -208.29478644 131.89089555 -207.47666144 131.10995805 C-200.75560479 124.24690724 -196.62105451 116.15269314 -192.14463019 107.75595415 C-184.02729527 92.64275821 -174.69729063 79.38282718 -163.05478644 66.7701143 C-161.5807278 65.16614762 -160.13336921 63.53731014 -158.71103644 61.8873018 C-153.28588244 55.62528893 -147.41907711 50.48084714 -140.88291144 45.40683305 C-139.88388801 44.60374712 -138.88486457 43.80066118 -137.85556769 42.9732393 C-116.25131296 25.73978755 -91.07550123 13.21507311 -64.38291144 6.09433305 C-63.10565192 5.74894487 -63.10565192 5.74894487 -61.80258918 5.39657915 C-58.84239747 4.6498888 -55.87337515 4.0225131 -52.88291144 3.40683305 C-51.64807832 3.15228318 -50.41324519 2.8977333 -49.14099288 2.63546979 C-32.87918376 -0.37890667 -16.46867195 -0.03005779 0 0 Z " fill="#E1BA66" transform="translate(1343.8829114437103,289.5931669473648)"/>
<path d="M0 0 C13.01942363 11.34065021 22.2855392 27.20991093 23.78515625 44.60546875 C24.37241151 54.03019947 22.88296149 62.46503163 20.78515625 71.60546875 C20.45515625 71.60546875 20.12515625 71.60546875 19.78515625 71.60546875 C19.32109375 73.43078125 19.32109375 73.43078125 18.84765625 75.29296875 C13.84342271 90.14197949 1.44565147 101.63669818 -12.21484375 108.60546875 C-15.49428976 110.13655063 -18.78625409 111.44776315 -22.21484375 112.60546875 C-22.88515625 112.83234375 -23.55546875 113.05921875 -24.24609375 113.29296875 C-39.63858976 117.55550611 -56.8924917 114.51213358 -70.96484375 107.54296875 C-86.08957432 98.76086713 -97.24531269 85.14013489 -102.1875 68.2890625 C-106.69850907 49.51067591 -104.13448429 32.18458741 -94.21484375 15.60546875 C-91.77860127 12.02305109 -89.15816552 8.78203489 -86.21484375 5.60546875 C-85.25191406 4.56132813 -85.25191406 4.56132813 -84.26953125 3.49609375 C-61.80102304 -18.54525651 -24.39607051 -19.05341575 0 0 Z M-86.96484375 15.85546875 C-96.8360364 29.22708433 -99.9665083 44.28588092 -97.8203125 60.60546875 C-94.64009029 75.70639487 -86.74738705 89.33473384 -73.95703125 98.1640625 C-71.91850789 99.39660215 -71.91850789 99.39660215 -69.21484375 100.60546875 C-69.22644531 99.99703125 -69.23804688 99.38859375 -69.25 98.76171875 C-69.37699037 86.42551175 -69.2991748 75.03889594 -64.95703125 63.375 C-64.12916093 60.28573655 -64.14831745 58.60830979 -65.21484375 55.60546875 C-67.19559402 54.24370294 -69.19564038 52.90953759 -71.21484375 51.60546875 C-71.54484375 50.28546875 -71.87484375 48.96546875 -72.21484375 47.60546875 C-75.51484375 47.60546875 -78.81484375 47.60546875 -82.21484375 47.60546875 C-85.05702232 41.92111162 -84.74063946 36.70865159 -83.21484375 30.60546875 C-76.28484375 30.60546875 -69.35484375 30.60546875 -62.21484375 30.60546875 C-62.54484375 29.94546875 -62.87484375 29.28546875 -63.21484375 28.60546875 C-63.87484375 28.60546875 -64.53484375 28.60546875 -65.21484375 28.60546875 C-65.29638308 27.02300168 -65.35427932 25.43930602 -65.40234375 23.85546875 C-65.43714844 22.97375 -65.47195313 22.09203125 -65.5078125 21.18359375 C-65.15535385 18.0819576 -64.4325849 16.7832506 -62.21484375 14.60546875 C-60.18656155 14.34790911 -58.15588583 14.0962441 -56.1171875 13.94140625 C-54.007298 13.75627698 -54.007298 13.75627698 -52.33984375 11.73046875 C-49.4446736 8.8352986 -46.49379144 8.30497302 -42.59765625 7.265625 C-40.1351159 6.65306191 -40.1351159 6.65306191 -37.65234375 5.41796875 C-32.68695176 3.76283809 -27.88523679 4.132716 -22.90234375 5.54296875 C-16.72363384 10.28476938 -15.36015676 19.06389957 -13.23046875 26.23046875 C-11.67611268 31.39571354 -9.93896381 36.49468429 -8.21484375 41.60546875 C-4.58484375 40.61546875 -0.95484375 39.62546875 2.78515625 38.60546875 C3.07390625 39.94609375 3.36265625 41.28671875 3.66015625 42.66796875 C5.96015102 50.50373525 10.95816086 57.11757172 15.78515625 63.60546875 C16.11515625 63.60546875 16.44515625 63.60546875 16.78515625 63.60546875 C19.47801733 48.79473279 17.48368559 33.30100514 9.66796875 20.26171875 C-0.48030523 5.94465172 -14.01824311 -4.07018953 -31.60546875 -7.07421875 C-53.73232735 -9.79039002 -72.80693585 -1.06571503 -86.96484375 15.85546875 Z M-54.21484375 51.60546875 C-54.05113281 52.56582031 -53.88742187 53.52617188 -53.71875 54.515625 C-53.07389557 59.029606 -53.10466713 63.49168517 -53.15234375 68.04296875 C-53.15685547 68.86990234 -53.16136719 69.69683594 -53.16601562 70.54882812 C-53.17768564 72.56774021 -53.19561657 74.58661449 -53.21484375 76.60546875 C-43.18102641 73.4930265 -35.25792962 67.33648394 -28.21484375 59.60546875 C-28.21484375 58.94546875 -28.21484375 58.28546875 -28.21484375 57.60546875 C-32.83484375 57.93546875 -37.45484375 58.26546875 -42.21484375 58.60546875 C-43.53484375 55.96546875 -44.85484375 53.32546875 -46.21484375 50.60546875 C-48.87260941 50.60546875 -51.58907892 51.22353932 -54.21484375 51.60546875 Z M16.78515625 63.60546875 C16.78515625 65.25546875 16.78515625 66.90546875 16.78515625 68.60546875 C17.11515625 68.60546875 17.44515625 68.60546875 17.78515625 68.60546875 C17.78515625 66.95546875 17.78515625 65.30546875 17.78515625 63.60546875 C17.45515625 63.60546875 17.12515625 63.60546875 16.78515625 63.60546875 Z M17.78515625 68.60546875 C18.78515625 70.60546875 18.78515625 70.60546875 18.78515625 70.60546875 Z M-51.71484375 101.66796875 C-55.19046334 102.9713261 -58.52456382 103.23018605 -62.21484375 103.60546875 C-56.96793806 107.10340588 -52.07029771 107.87780154 -45.83984375 108.23046875 C-44.59460937 108.30523438 -43.349375 108.38 -42.06640625 108.45703125 C-41.12539062 108.50601563 -40.184375 108.555 -39.21484375 108.60546875 C-38.88484375 109.59546875 -38.55484375 110.58546875 -38.21484375 111.60546875 C-37.88484375 107.31546875 -37.55484375 103.02546875 -37.21484375 98.60546875 C-42.38513153 98.60546875 -46.9543801 99.6447717 -51.71484375 101.66796875 Z " fill="#E1BA66" transform="translate(1175.21484375,799.39453125)"/>
<path d="M0 0 C0.76683105 0.03577148 1.53366211 0.07154297 2.32373047 0.10839844 C37.92480809 2.04963133 73.98089107 14.7292832 102 37 C102.53496094 37.42216797 103.06992188 37.84433594 103.62109375 38.27929688 C123.06791321 53.78545388 139.04773127 72.1512756 151 94 C151.51554443 94.93247559 151.51554443 94.93247559 152.04150391 95.88378906 C167.65235812 124.46828139 173.7454707 156.65485449 173 189 C171.17567844 185.81402666 170.58282722 183.07279725 170.140625 179.44140625 C169.99794189 178.34393066 169.85525879 177.24645508 169.70825195 176.11572266 C169.55702881 174.94315918 169.40580566 173.7705957 169.25 172.5625 C163.92800633 134.62468452 147.56406298 100.6820791 121 73 C119.66582031 71.57107422 119.66582031 71.57107422 118.3046875 70.11328125 C102.45797202 53.44171978 82.0828578 40.95138097 61 32 C59.95972656 31.55140625 58.91945313 31.1028125 57.84765625 30.640625 C15.4646578 13.32399007 -34.51122103 14.56002077 -76.65185547 31.78271484 C-91.16272759 37.92706027 -104.33008172 45.64932341 -117 55 C-117.93972656 55.69351563 -118.87945313 56.38703125 -119.84765625 57.1015625 C-161.01635959 89.26655244 -181.53077628 135.46241805 -187.78808594 186.25024414 C-187.8929834 187.11637329 -187.8929834 187.11637329 -188 188 C-188.33 188 -188.66 188 -189 188 C-190.14708846 146.44990673 -179.00730805 105.011197 -153 72 C-152.5870166 71.47277344 -152.1740332 70.94554687 -151.74853516 70.40234375 C-122.15698429 33.07181697 -79.43086055 7.19712604 -31.7734375 1.31640625 C-21.19776144 0.1431432 -10.63845165 -0.50554119 0 0 Z " fill="#E1BA66" transform="translate(1512,690)"/>
<path d="M0 0 C4.26078782 0.58481401 5.44919837 2.19477439 8.1875 5.4375 C8.93 6.30375 9.6725 7.17 10.4375 8.0625 C14.83908519 14.0360799 13.64249998 21.97930979 12.72070312 28.98535156 C12.02653818 33.02691071 11.25314732 37.04406486 10.4375 41.0625 C10.28810974 41.81494995 10.13871948 42.5673999 9.98480225 43.34265137 C4.20706108 72.36876159 -2.7804469 101.24846497 -10.75 129.75 C-11.0907959 130.97428711 -11.4315918 132.19857422 -11.78271484 133.45996094 C-17.29174107 152.65636161 -17.29174107 152.65636161 -21.8125 159.4375 C-24.125 159.9375 -24.125 159.9375 -26.8125 159.4375 C-33.62809422 153.57291893 -33.62809422 153.57291893 -34.0078125 149.17578125 C-33.98460937 148.37527344 -33.96140625 147.57476563 -33.9375 146.75 C-33.91945313 145.94175781 -33.90140625 145.13351562 -33.8828125 144.30078125 C-33.85960937 143.68589844 -33.83640625 143.07101562 -33.8125 142.4375 C-34.72128906 143.30761719 -34.72128906 143.30761719 -35.6484375 144.1953125 C-45.88798778 153.74172399 -55.26353498 160.08603114 -69.625 159.80859375 C-77.04491419 158.9447557 -81.75480495 154.13083185 -86.3359375 148.53515625 C-91.67234042 140.95407591 -91.68474469 133.27993382 -90.15625 124.39453125 C-85.54818961 100.30429149 -73.88757718 77.32552568 -53.8125 62.4375 C-46.31514425 57.94182781 -39.55120885 56.61332219 -30.8125 57.4375 C-24.25354795 59.09685881 -21.25919026 62.97753202 -17.84375 68.609375 C-17.5034375 69.21265625 -17.163125 69.8159375 -16.8125 70.4375 C-14.7378757 66.87101737 -13.97800442 63.15758899 -13.19140625 59.15625 C-12.97455673 58.07867935 -12.97455673 58.07867935 -12.75332642 56.9793396 C-12.28579576 54.63357393 -11.82943309 52.2858359 -11.375 49.9375 C-11.21842926 49.13959045 -11.06185852 48.34168091 -10.90054321 47.51959229 C-8.51575741 35.29674236 -6.74508628 23.15911343 -5.69946289 10.74414062 C-5.60656982 9.67099609 -5.51367676 8.59785156 -5.41796875 7.4921875 C-5.34731201 6.55874512 -5.27665527 5.62530273 -5.20385742 4.66357422 C-4.59013096 1.17264601 -3.4277069 0.53319885 0 0 Z M-51.95703125 84.12890625 C-63.29438011 98.23495504 -73.43055947 116.76054185 -73.15234375 135.27734375 C-72.92044717 137.74310848 -72.92044717 137.74310848 -70.75 140.5 C-66.92520164 143.02273934 -65.34260897 143.18014081 -60.8125 142.4375 C-53.10829842 139.61003208 -46.92355383 134.80477425 -40.8125 129.4375 C-40.11125 128.83164063 -39.41 128.22578125 -38.6875 127.6015625 C-31.68618977 121.11988076 -24.09265194 111.05886971 -22.4765625 101.4375 C-22.30089411 92.44327857 -24.67668669 83.1530752 -30.8125 76.4375 C-38.61525742 72.53612129 -46.74456654 78.58246211 -51.95703125 84.12890625 Z " fill="#E1BA66" transform="translate(2076.8125,1316.5625)"/>
<path d="M0 0 C2.42962886 2.0496869 4.40629809 3.80478368 5.8359375 6.6640625 C5.8759295 8.66366262 5.87940549 10.66453492 5.8359375 12.6640625 C0.42415277 15.18810726 -4.85456383 16.65540797 -10.6640625 17.9765625 C-23.36279418 21.02225021 -38.59506201 24.93333123 -47.9921875 34.53125 C-49.38541411 36.62625343 -49.38541411 36.62625343 -49.04296875 39.17578125 C-48.08536809 41.88685511 -47.04557265 43.37313466 -45.1015625 45.4765625 C-44.46992187 46.16234375 -43.83828125 46.848125 -43.1875 47.5546875 C-42.18589844 48.59882812 -42.18589844 48.59882812 -41.1640625 49.6640625 C-40.19339844 50.67726563 -40.19339844 50.67726563 -39.203125 51.7109375 C-34.01310171 57.00353042 -28.58909368 62.04236669 -22.69921875 66.55078125 C-13.52714355 74.19653269 -3.39329921 87.13033126 -1.828125 99.26953125 C-1.67435539 109.43370274 -4.56572843 117.78626021 -11.125 125.6015625 C-21.42042811 136.01532886 -35.54819189 141.81458007 -50.10205078 141.9934082 C-50.88563965 141.98784912 -51.66922852 141.98229004 -52.4765625 141.9765625 C-53.30397949 141.97164795 -54.13139648 141.9667334 -54.98388672 141.96166992 C-69.66531049 141.68258261 -80.35268755 136.93357837 -90.9921875 126.921875 C-95.71277321 122.01450352 -97.54944322 117.43119525 -98.28125 110.6796875 C-98.1640625 108.6640625 -98.1640625 108.6640625 -96.1640625 105.6640625 C-90.2110423 105.99025539 -87.34976745 107.73180565 -83.3515625 111.9140625 C-75.08922865 120.03893081 -66.90432361 123.95550863 -55.20654297 123.98095703 C-44.99073619 123.78351481 -36.05200304 120.12848936 -28.1640625 113.6640625 C-24.51858779 109.83164037 -22.1640625 106.30789693 -22.1640625 100.9140625 C-26.17541119 87.87717926 -38.74079238 77.55582897 -48.96875 69.1875 C-53.53588719 65.39170153 -57.43594579 61.28725569 -61.1640625 56.6640625 C-62.13472656 55.46716797 -62.13472656 55.46716797 -63.125 54.24609375 C-67.20141008 48.88020702 -69.77419437 44.52804608 -69.1640625 37.6640625 C-67.12686923 26.4068135 -61.96969098 19.47144443 -52.734375 12.90234375 C-40.25938033 4.80521988 -14.32967575 -8.84611752 0 0 Z " fill="#E1BA66" transform="translate(1795.1640625,1333.3359375)"/>
<path d="M0 0 C3.99279543 3.57250117 4.68425777 6.75602218 5 12 C3.92358398 15.43066406 3.92358398 15.43066406 2.24609375 19.015625 C1.94975037 19.66526718 1.65340698 20.31490936 1.3480835 20.98423767 C0.71671208 22.36664771 0.07823032 23.74582927 -0.56680298 25.12191772 C-2.23597817 28.68941071 -3.84660596 32.28285006 -5.453125 35.87890625 C-5.76816483 36.58271927 -6.08320465 37.28653229 -6.40779114 38.01167297 C-11.41587718 49.32015547 -16.06230602 61.64335021 -16.25 74.125 C-16.27578125 75.15882812 -16.3015625 76.19265625 -16.328125 77.2578125 C-16.22042153 80.0016044 -16.22042153 80.0016044 -14.68359375 81.86328125 C-12.89812794 83.29069242 -12.89812794 83.29069242 -9.8125 83.0625 C4.48297782 79.07851438 13.22413417 62.33909529 20.08081055 50.22607422 C21.40717925 47.82751979 22.71100659 45.41882679 24 43 C24.36722168 42.31099609 24.73444336 41.62199219 25.11279297 40.91210938 C31.56186381 28.5652739 35.84521165 15.43429486 40.18725586 2.23046875 C41 0 41 0 42 -1 C44.625 -1.5625 44.625 -1.5625 48 -1 C51.94288469 2.37026659 55.98923696 6.81983943 57 12 C56.52777147 19.53007936 54.62792232 26.27755527 52.39453125 33.4609375 C52.03284348 34.64611969 51.6711557 35.83130188 51.29850769 37.05239868 C50.14395076 40.82892767 48.97832854 44.60193733 47.8125 48.375 C47.04811578 50.8708757 46.28443756 53.36696773 45.52148438 55.86328125 C43.36333758 62.91374362 41.18457365 69.9576888 39 77 C38.53566559 78.50270447 38.53566559 78.50270447 38.06195068 80.0357666 C37.23652653 82.70473908 36.40640648 85.37219241 35.57421875 88.0390625 C35.33870804 88.80173431 35.10319733 89.56440613 34.86054993 90.35018921 C32.69224176 97.25316037 32.69224176 97.25316037 31 100 C28.17116253 101.41441874 26.12623255 101.31900332 23 101 C20.491706 98.62033646 20.02271378 97.22443378 19.671875 93.7578125 C19.71054688 91.95957031 19.71054688 91.95957031 19.75 90.125 C19.76546875 88.93132812 19.7809375 87.73765625 19.796875 86.5078125 C19.98455164 83.26678126 20.39577459 80.18680177 21 77 C20.17757813 78.00160156 19.35515625 79.00320313 18.5078125 80.03515625 C12.32872641 87.43723487 6.51017183 94.18854005 -2 99 C-2.63164063 99.37769531 -3.26328125 99.75539063 -3.9140625 100.14453125 C-8.76609994 102.13441177 -15.12768042 101.89492046 -20.09375 100.34765625 C-21.91949047 99.38084369 -23.41050459 98.31935949 -25 97 C-25.60585937 96.51402344 -26.21171875 96.02804687 -26.8359375 95.52734375 C-31.73965844 91.15123836 -34.73465216 86.4849077 -36 80 C-36.90838227 57.76734399 -28.63940472 35.55644439 -19.4375 15.6875 C-19.08598877 14.91744629 -18.73447754 14.14739258 -18.37231445 13.35400391 C-14.2944756 4.85390465 -10.25862179 -2.47621905 0 0 Z " fill="#E1BA66" transform="translate(1923,1375)"/>
<path d="M0 0 C7.50208735 5.78217649 12.23857261 14.71862204 13.6484375 24.0078125 C15.18191426 43.46943671 9.76839699 63.09603869 -2.63671875 78.4140625 C-11.34684914 88.53131295 -21.79886173 96.8506768 -35.44921875 98.1640625 C-42.2017249 98.42454493 -47.77426066 98.54818181 -53.265625 94.29296875 C-59.61658649 88.32116914 -64.28173526 80.52875093 -65.01293945 71.67260742 C-65.62124298 48.70975534 -60.11130573 28.53471021 -44.8359375 10.81640625 C-33.10727488 -1.51026384 -15.98168683 -10.30308747 0 0 Z M-28.3984375 18.81640625 C-39.52226213 30.50803631 -46.62183503 48.56062141 -47.0859375 64.50390625 C-46.87981978 71.71802639 -45.16006289 77.05090573 -40.8359375 82.81640625 C-32.34464649 82.28570056 -26.42387873 78.1207502 -20.8359375 71.81640625 C-20.30355469 71.22601562 -19.77117188 70.635625 -19.22265625 70.02734375 C-15.35153569 65.44379968 -12.56406113 60.65289904 -10.0234375 55.25390625 C-9.73355957 54.64111816 -9.44368164 54.02833008 -9.14501953 53.39697266 C-5.89904879 46.21069566 -4.4438048 39.32064558 -4.4609375 31.44140625 C-4.46182373 30.7026123 -4.46270996 29.96381836 -4.46362305 29.20263672 C-4.60959997 22.43434608 -5.95401542 16.46954692 -10.22265625 11.05859375 C-16.03508777 6.58316221 -24.15821373 14.99436968 -28.3984375 18.81640625 Z " fill="#E1BA66" transform="translate(2205.8359375,1378.18359375)"/>
<path d="M0 0 C5.37789711 1.72498587 9.59305192 4.97256931 12.37109375 9.96484375 C14.67956474 17.43511323 11.99916131 25.67202169 10.3125 33.0625 C11.36377075 33.04678955 11.36377075 33.04678955 12.4362793 33.03076172 C15.62414945 32.98908332 18.81196215 32.96313615 22 32.9375 C23.10279297 32.92074219 24.20558594 32.90398437 25.34179688 32.88671875 C26.40849609 32.88027344 27.47519531 32.87382813 28.57421875 32.8671875 C30.04314575 32.85147705 30.04314575 32.85147705 31.54174805 32.83544922 C34.54506136 33.08155737 36.66082219 33.63137953 39.3125 35.0625 C40.125 38.1875 40.125 38.1875 40.3125 41.0625 C37.21660678 43.69763472 34.60754496 44.71783198 30.6640625 45.6328125 C29.03210937 46.01759766 29.03210937 46.01759766 27.3671875 46.41015625 C26.23539063 46.66667969 25.10359375 46.92320313 23.9375 47.1875 C22.25140625 47.58388672 22.25140625 47.58388672 20.53125 47.98828125 C15.47266281 49.16622649 10.44355473 50.24621749 5.3125 51.0625 C5.14821251 51.96632668 5.14821251 51.96632668 4.98060608 52.88841248 C3.78737213 59.17615388 2.18543971 65.23282729 0.30859375 71.34765625 C-0.27295151 73.27924719 -0.85432662 75.21088936 -1.43554688 77.14257812 C-2.34347723 80.1405912 -3.25390671 83.1378093 -4.16772461 86.1340332 C-5.05738544 89.05740944 -5.93737811 91.98356824 -6.81640625 94.91015625 C-7.08932999 95.79478043 -7.36225372 96.6794046 -7.64344788 97.59083557 C-9.29268103 103.10232005 -10.30974894 108.31260713 -10.6875 114.0625 C-9.69008283 115.28901036 -9.69008283 115.28901036 -7.7109375 115.1171875 C1.77681622 114.4734756 10.32920753 111.54008871 19.0859375 107.9140625 C21.64556146 106.9351186 23.59388003 106.83594834 26.3125 107.0625 C27.3125 108.0625 27.3125 108.0625 27.8125 111.125 C27.08876125 116.82444262 24.65858084 119.43273043 20.3125 123.0625 C9.17902962 130.681916 -0.97936508 134.43898974 -14.6875 133.0625 C-21.31397457 131.06770856 -25.84333206 127.76674921 -29.6875 122.0625 C-32.9722384 112.20828481 -28.42267278 100.48902753 -25.5 91 C-25.0919862 89.64090154 -24.68517851 88.28144044 -24.27954102 86.92163086 C-23.47325962 84.2264162 -22.65980446 81.53355994 -21.83886719 78.84277344 C-20.80015744 75.43238715 -19.77497998 72.01842373 -18.7578125 68.6015625 C-17.41257387 64.08498874 -16.0549481 59.57239747 -14.6875 55.0625 C-15.29368164 55.206875 -15.89986328 55.35125 -16.52441406 55.5 C-17.32588867 55.685625 -18.12736328 55.87125 -18.953125 56.0625 C-19.74493164 56.248125 -20.53673828 56.43375 -21.35253906 56.625 C-24.82509959 57.27565124 -27.31067518 57.10152302 -30.6875 56.0625 C-34.06278276 52.97447534 -35.57428248 51.28524926 -36 46.6875 C-35.896875 45.82125 -35.79375 44.955 -35.6875 44.0625 C-27.66044316 39.49809513 -18.96636723 36.93301375 -9.6875 37.0625 C-9.2034631 33.47980733 -8.7256761 29.89631199 -8.25 26.3125 C-8.10949219 25.26167236 -7.96898437 24.21084473 -7.82421875 23.12817383 C-6.99007004 16.77123271 -6.31833271 10.48418373 -6.09375 4.07421875 C-5.39150476 0.59675433 -3.27357329 0.07612961 0 0 Z " fill="#E1BA66" transform="translate(1846.6875,1342.9375)"/>
<path d="M0 0 C5.60300037 3.67900024 9.96621665 9.1807444 12.3125 15.4375 C12.5625 19.25 12.5625 19.25 12.3125 22.4375 C11.3125 23.4375 11.3125 23.4375 8.75 23.8125 C5.25274789 23.43098159 4.18509411 22.89708688 1.375 21 C-2.4494913 18.4863513 -4.97123982 17.28029133 -9.6875 17.4375 C-18.00390732 19.98833082 -27.69216916 23.89619195 -32.625 31.375 C-32.7016169 35.12922796 -31.61850264 36.78106276 -29.05078125 39.4609375 C-25.40383776 42.51110842 -21.43333763 45.02333311 -17.4440918 47.60009766 C-8.76626627 53.24714748 0.77843272 60.045459 3.9140625 70.4296875 C5.06608169 76.23496066 4.92745506 80.73980906 1.62109375 85.78515625 C-4.31484613 93.28038779 -14.16866881 99.22897507 -23.6875 100.4375 C-40.33128658 101.38984294 -54.21586856 100.07855196 -67.5234375 88.89453125 C-70.74283491 85.42390918 -71.6875 82.10454221 -71.6875 77.4375 C-70.25 75 -70.25 75 -68.6875 73.4375 C-63.8716242 73.6468859 -61.00129667 74.68985806 -56.9375 77.3125 C-46.56015651 83.8632965 -35.71693486 84.76886857 -23.9296875 82.125 C-20.73721474 81.14612333 -18.82920342 80.0075441 -16.6875 77.4375 C-15.68440763 74.61409226 -15.68440763 74.61409226 -16.6875 71.4375 C-20.47476994 64.90481133 -26.80055027 61.1967613 -32.97998047 57.22851562 C-41.53230015 51.69553663 -50.78573708 45.28384652 -53.625 35.0625 C-53.76231666 27.09813369 -50.25229791 22.17760756 -44.96484375 16.59375 C-35.14175559 7.29298728 -14.05560318 -7.30891365 0 0 Z " fill="#E1BA66" transform="translate(2298.6875,1375.5625)"/>
<path d="M0 0 C3.2038199 0 5.27384087 0.34746069 7.6953125 2.5234375 C12.14993814 7.62366106 13.36496752 11.10616904 13 18 C12.37363267 21.62538392 11.51049171 25.18007328 10.625 28.75 C10.36460937 29.81549072 10.10421875 30.88098145 9.8359375 31.97875977 C5.98279399 47.43402487 1.54190942 62.73515021 -3 78 C-3.31533691 79.06186523 -3.63067383 80.12373047 -3.95556641 81.21777344 C-4.72038153 83.75655316 -5.50741594 86.28624878 -6.3125 88.8125 C-6.51810547 89.48595459 -6.72371094 90.15940918 -6.93554688 90.85327148 C-8.48752655 95.52953405 -10.5767927 98.5402088 -14 102 C-17.51438707 102.54533592 -19.70575104 102.69026611 -22.875 101 C-26.67527899 94.24394845 -24.39495066 86.92735841 -22.5625 79.9375 C-22.29244141 78.86040771 -22.02238281 77.78331543 -21.74414062 76.67358398 C-20.84589998 73.11128932 -19.92540505 69.55532977 -19 66 C-18.17465538 62.81328711 -17.34938019 59.62655626 -16.52424622 56.43978882 C-15.67725033 53.17028302 -14.82732119 49.90159568 -13.97192383 46.63427734 C-11.44164748 36.93137323 -9.14422038 27.18454017 -7.078125 17.37133789 C-4.18668846 4.18668846 -4.18668846 4.18668846 0 0 Z " fill="#E1BA66" transform="translate(2115,1374)"/>
<path d="M0 0 C4.69074948 5.81480005 8.26256767 13.36471107 9.4375 20.75 C9 23 9 23 7.5 25.375 C4.61613305 27.24951351 2.68980003 27.54481429 -0.703125 26.9453125 C-6.12798562 24.71263177 -11.26071469 19.90417702 -14.265625 14.88671875 C-15.36722189 12.05655228 -15.36184245 10.01535373 -15 7 C-10.81881533 -0.24738676 -10.81881533 -0.24738676 -7.1875 -1.75 C-4.2129631 -2.08994707 -2.65878424 -1.355777 0 0 Z " fill="#E1BA66" transform="translate(2132,1335)"/>
</svg>
